<svg xmlns="http://www.w3.org/2000/svg" xmlns:xlink="http://www.w3.org/1999/xlink" viewBox="0 0 1156.44 336.95"><defs><style>.cls-1{fill:none;}.cls-2{fill:#03003f;}.cls-3{clip-path:url(#clip-path);}.cls-4{fill:url(#linear-gradient);}.cls-5{clip-path:url(#clip-path-2);}.cls-6{fill:url(#linear-gradient-2);}</style><clipPath id="clip-path" transform="translate(83.08 83.07)"><path class="cls-1" d="M22.59,0A22.6,22.6,0,0,0,0,22.6v121a22.61,22.61,0,0,0,22.61,22.61h79.44a2.43,2.43,0,0,0,2.43-2.43v-18a2.43,2.43,0,0,0-2.43-2.42H34.47a11.59,11.59,0,0,1-11.59-11.59V34.48A11.58,11.58,0,0,1,34.47,22.9h97.2a11.58,11.58,0,0,1,11.59,11.58V80.65a2.43,2.43,0,0,0,2.43,2.43h18a2.43,2.43,0,0,0,2.43-2.43v-58A22.61,22.61,0,0,0,143.54,0Z"/></clipPath><linearGradient id="linear-gradient" x1="-8.87" y1="3048.58" x2="-5.56" y2="3048.58" gradientTransform="matrix(84.96, 0, 0, -84.96, 700.08, 259104.46)" gradientUnits="userSpaceOnUse"><stop offset="0" stop-color="#003adc"/><stop offset="1" stop-color="#007df8"/></linearGradient><clipPath id="clip-path-2" transform="translate(83.08 83.07)"><path class="cls-1" d="M233,33.55l-90,90a2.11,2.11,0,0,1-3,0L99.27,82.78a3.28,3.28,0,0,0-4.65,0L78.71,98.69a3.3,3.3,0,0,0,0,4.65l60.57,60.57a3.19,3.19,0,0,0,4.52,0l18.3-18.3,91.5-91.5a3.28,3.28,0,0,0,0-4.65L237.69,33.55a3.27,3.27,0,0,0-4.65,0"/></clipPath><linearGradient id="linear-gradient-2" x1="-8.87" y1="3048.01" x2="-5.56" y2="3048.01" gradientTransform="matrix(84.96, 0, 0, -84.96, 736.07, 259071.83)" xlink:href="#linear-gradient"/></defs><g id="Layer_2" data-name="Layer 2"><g id="Layer_1-2" data-name="Layer 1"><path class="cls-2" d="M332.44,32.58c20.82,0,37.78,9.23,37.78,29.16,0,7.88-2.38,16.07-11.45,20.23a27.36,27.36,0,0,1,14.43,24.25c0,23.36-21.28,30.35-40.31,30.5H279.18V32.58ZM308.19,72.3h23.5c6.1,0,9.38-3.12,9.38-7.73s-3.28-8.18-9.08-8.18h-23.8Zm0,41.51H333c7.44,0,11-4,11-9.82,0-5.65-3.72-10-11-10H308.19Z" transform="translate(83.08 83.07)"/><path class="cls-2" d="M459.62,100.12c0,26.78-21.27,38.38-41.95,38.38-21.12,0-41.95-11.6-41.95-38.38,0-27.22,20.68-38.53,41.95-38.53,21.72,0,41.95,11.76,41.95,38.53m-26.77,0c0-8.48-5.51-16.06-15.18-16.06s-15.17,7.58-15.17,16.06S408,116,417.67,116c9.22,0,15.18-7,15.18-15.92" transform="translate(83.08 83.07)"/><path class="cls-2" d="M545.6,100.12c0,26.78-21.27,38.38-42,38.38-21.13,0-41.95-11.6-41.95-38.38,0-27.22,20.68-38.53,41.95-38.53,21.72,0,42,11.76,42,38.53m-26.78,0c0-8.48-5.5-16.06-15.17-16.06s-15.17,7.58-15.17,16.06S494,116,503.65,116c9.22,0,15.17-7,15.17-15.92" transform="translate(83.08 83.07)"/><polygon class="cls-2" points="662.29 115.65 662.29 167.87 677.61 146.3 708.11 146.3 708.11 147.49 682.37 180.81 712.27 218.15 712.27 219.78 681.33 219.78 662.29 194.2 662.29 219.78 634.77 219.78 634.77 115.65 662.29 115.65"/><path class="cls-2" d="M681,136.72V97.45c0-9.68-5.06-18.45-15-18.45s-15.62,8.77-15.62,18.45v39.27H632.17V63.23H649l1.34,8.93C654.18,64.72,662.66,62,669.65,62c8.78,0,17.56,3.57,21.72,13.68,6.55-10.41,15-13.38,24.55-13.38,20.82,0,31.09,12.79,31.09,34.81v39.57H728.86V97.15c0-9.67-4-17.85-13.83-17.85s-15.92,8.47-15.92,18.15v39.27Z" transform="translate(83.08 83.07)"/><path class="cls-2" d="M826.23,63.53,780.17,170.34H760.24l15-34.81L746,63.38h21.13l11.15,31.69,7,20.67,7.59-20.23,13.39-32.13,20,.15" transform="translate(83.08 83.07)"/><path class="cls-2" d="M854.85,42.7V63.52h20.23V79.15H854.7v31.69c0,7,3.86,10.41,9.52,10.41A20.74,20.74,0,0,0,873,119l5,15.47a40.39,40.39,0,0,1-15,3.13c-15.92.59-26.33-8.48-26.33-26.77V79.15H823V63.52H836.7V44.63Z" transform="translate(83.08 83.07)"/><path class="cls-2" d="M895.75,106.52c1.19,9.07,9.07,15.62,21.87,15.62,6.69,0,15.47-2.53,19.64-6.84l11.6,11.45c-7.74,8-20.38,11.9-31.54,11.9C892,138.65,877,123,877,99.53c0-22.32,15.17-38.38,39-38.38,24.55,0,39.87,15.17,37,45.37Zm39.87-15c-1.19-9.52-8.63-14.28-19-14.28-9.82,0-17.85,4.76-20.53,14.28Z" transform="translate(83.08 83.07)"/><path class="cls-2" d="M1004.94,82.86c-5.21-4.9-11.16-6.54-18.15-6.54-8.63,0-13.39,2.68-13.39,7.29,0,4.76,4.31,7.44,13.68,8,13.84.89,31.39,4,31.39,23.51,0,12.94-10.56,24.1-31.54,24.1-11.6,0-23.2-1.94-33.91-13.09l8.92-13c7,7.29,17.11,10.12,25.29,10.27,6.85.15,13.24-2.68,13.24-8,0-5-4.16-7.88-14.58-8.47-13.83-1-30.34-6.1-30.34-22.77,0-17,17.55-22.9,30.94-22.9,11.45,0,20.08,2.22,28.56,9.66Z" transform="translate(83.08 83.07)"/><path class="cls-2" d="M1050.15,42.7V63.52h20.23V79.15H1050v31.69c0,7,3.86,10.41,9.52,10.41a20.73,20.73,0,0,0,8.77-2.24l5.06,15.47a40.4,40.4,0,0,1-15,3.13c-15.91.59-26.32-8.48-26.32-26.77V79.15h-13.69V63.52H1032V44.63Z" transform="translate(83.08 83.07)"/><g class="cls-3"><rect class="cls-4" x="-34.41" y="-34.41" width="234.99" height="234.98" transform="translate(48.66 167.07) rotate(-45.45)"/></g><g class="cls-5"><rect class="cls-6" x="56.67" y="-10.86" width="218.97" height="219.47" transform="translate(62.21 230.98) rotate(-45.45)"/></g></g></g></svg>